HIERARCHY
ROOT hips_JNT
{
	OFFSET 0.000000 0.000000 0.000000
	CHANNELS 6 Xposition Yposition Zposition Zrotation Xrotation Yrotation
	JOINT spine_JNT
	{
		OFFSET -0.000424 -2.543419 9.319810
		CHANNELS 3 Zrotation Xrotation Yrotation
		JOINT spine1_JNT
		{
			OFFSET 0.000000 0.000046 10.873099
			CHANNELS 3 Zrotation Xrotation Yrotation
			JOINT spine2_JNT
			{
				OFFSET 0.000000 5.951161 12.426399
				CHANNELS 3 Zrotation Xrotation Yrotation
				JOINT neck_JNT
				{
					OFFSET 0.000000 1.460481 13.979698
					CHANNELS 3 Zrotation Xrotation Yrotation
					JOINT head_JNT
					{
						OFFSET 0.000000 -2.091499 5.870201
						CHANNELS 3 Zrotation Xrotation Yrotation
						End Site
						{
							OFFSET 0.000000 0.000000 0.099998
						}
					}
				}
				JOINT l_shoulder_JNT
				{
					OFFSET 4.399140 1.485011 12.861000
					CHANNELS 3 Zrotation Xrotation Yrotation
					JOINT l_arm_JNT
					{
						OFFSET 8.757349 0.049052 -2.311981
						CHANNELS 3 Zrotation Xrotation Yrotation
						JOINT l_forearm_JNT
						{
							OFFSET 26.900103 -0.000013 -0.000046
							CHANNELS 3 Zrotation Xrotation Yrotation
							JOINT l_hand_JNT
							{
								OFFSET 23.014801 0.000004 -0.000046
								CHANNELS 3 Zrotation Xrotation Yrotation
								JOINT l_handThumb1_JNT
								{
									OFFSET 3.629997 -2.130000 -0.779999
									CHANNELS 3 Zrotation Xrotation Yrotation
									JOINT l_handThumb2_JNT
									{
										OFFSET 3.551140 -2.240060 -2.118370
										CHANNELS 3 Zrotation Xrotation Yrotation
										JOINT l_handThumb3_JNT
										{
											OFFSET 2.159111 -0.963467 -1.116310
											CHANNELS 3 Zrotation Xrotation Yrotation
											End Site
											{
												OFFSET 0.000000 0.000000 0.099998
											}
										}
									}
								}
								JOINT l_handIndex1_JNT
								{
									OFFSET 10.514900 -2.197570 -0.041019
									CHANNELS 3 Zrotation Xrotation Yrotation
									JOINT l_handIndex2_JNT
									{
										OFFSET 2.751831 0.139054 -0.102867
										CHANNELS 3 Zrotation Xrotation Yrotation
										JOINT l_handIndex3_JNT
										{
											OFFSET 2.353012 0.090487 -0.073399
											CHANNELS 3 Zrotation Xrotation Yrotation
											End Site
											{
												OFFSET 0.000000 0.000000 0.099998
											}
										}
									}
								}
								JOINT l_handMiddle1_JNT
								{
									OFFSET 10.067101 -0.059573 0.139202
									CHANNELS 3 Zrotation Xrotation Yrotation
									JOINT l_handMiddle2_JNT
									{
										OFFSET 3.909027 0.119066 -0.288403
										CHANNELS 3 Zrotation Xrotation Yrotation
										JOINT l_handMiddle3_JNT
										{
											OFFSET 2.328400 0.059440 -0.019108
											CHANNELS 3 Zrotation Xrotation Yrotation
											End Site
											{
												OFFSET 0.000000 0.000000 0.099998
											}
										}
									}
								}
								JOINT l_handRing1_JNT
								{
									OFFSET 9.468109 1.809830 0.132240
									CHANNELS 3 Zrotation Xrotation Yrotation
									JOINT l_handRing2_JNT
									{
										OFFSET 3.281532 0.033937 -0.224052
										CHANNELS 3 Zrotation Xrotation Yrotation
										JOINT l_handRing3_JNT
										{
											OFFSET 2.245003 0.008389 -0.070213
											CHANNELS 3 Zrotation Xrotation Yrotation
											End Site
											{
												OFFSET 0.000000 0.000000 0.099998
											}
										}
									}
								}
								JOINT l_handPinky1_JNT
								{
									OFFSET 8.490768 3.584150 -0.077770
									CHANNELS 3 Zrotation Xrotation Yrotation
									JOINT l_handPinky2_JNT
									{
										OFFSET 2.532173 0.017040 -0.073074
										CHANNELS 3 Zrotation Xrotation Yrotation
										JOINT l_handPinky3_JNT
										{
											OFFSET 1.951210 -0.017009 0.025116
											CHANNELS 3 Zrotation Xrotation Yrotation
											End Site
											{
												OFFSET 0.000000 0.000000 0.099998
											}
										}
									}
								}
							}
						}
					}
				}
				JOINT r_shoulder_JNT
				{
					OFFSET -4.397820 1.485011 12.860600
					CHANNELS 3 Zrotation Xrotation Yrotation
					JOINT r_arm_JNT
					{
						OFFSET -8.757320 0.049050 -2.312000
						CHANNELS 3 Zrotation Xrotation Yrotation
						JOINT r_forearm_JNT
						{
							OFFSET -26.900000 -0.000010 0.000000
							CHANNELS 3 Zrotation Xrotation Yrotation
							JOINT r_hand_JNT
							{
								OFFSET -23.014900 0.000000 0.000000
								CHANNELS 3 Zrotation Xrotation Yrotation
								JOINT r_handThumb1_JNT
								{
									OFFSET -3.629997 -2.130000 -0.779999
									CHANNELS 3 Zrotation Xrotation Yrotation
									JOINT r_handThumb2_JNT
									{
										OFFSET -3.551201 -2.240060 -2.118000
										CHANNELS 3 Zrotation Xrotation Yrotation
										JOINT r_handThumb3_JNT
										{
											OFFSET -2.159103 -0.963467 -1.116001
											CHANNELS 3 Zrotation Xrotation Yrotation
											End Site
											{
												OFFSET 0.000000 0.000000 0.099998
											}
										}
									}
								}
								JOINT r_handIndex1_JNT
								{
									OFFSET -10.514900 -2.197560 -0.040997
									CHANNELS 3 Zrotation Xrotation Yrotation
									JOINT r_handIndex2_JNT
									{
										OFFSET -2.751801 0.139050 -0.102997
										CHANNELS 3 Zrotation Xrotation Yrotation
										JOINT r_handIndex3_JNT
										{
											OFFSET -2.352997 0.090490 -0.073006
											CHANNELS 3 Zrotation Xrotation Yrotation
											End Site
											{
												OFFSET 0.000000 0.000000 0.099998
											}
										}
									}
								}
								JOINT r_handMiddle1_JNT
								{
									OFFSET -10.067101 -0.059570 0.139999
									CHANNELS 3 Zrotation Xrotation Yrotation
									JOINT r_handMiddle2_JNT
									{
										OFFSET -3.909103 0.119070 -0.288998
										CHANNELS 3 Zrotation Xrotation Yrotation
										JOINT r_handMiddle3_JNT
										{
											OFFSET -2.328400 0.059440 -0.019001
											CHANNELS 3 Zrotation Xrotation Yrotation
											End Site
											{
												OFFSET 0.000000 0.000000 0.099998
											}
										}
									}
								}
								JOINT r_handRing1_JNT
								{
									OFFSET -9.468102 1.809830 0.133003
									CHANNELS 3 Zrotation Xrotation Yrotation
									JOINT r_handRing2_JNT
									{
										OFFSET -3.281601 0.033939 -0.224995
										CHANNELS 3 Zrotation Xrotation Yrotation
										JOINT r_handRing3_JNT
										{
											OFFSET -2.245003 0.008390 -0.070000
											CHANNELS 3 Zrotation Xrotation Yrotation
											End Site
											{
												OFFSET 0.000000 0.000000 0.099998
											}
										}
									}
								}
								JOINT r_handPinky1_JNT
								{
									OFFSET -8.490799 3.584149 -0.076996
									CHANNELS 3 Zrotation Xrotation Yrotation
									JOINT r_handPinky2_JNT
									{
										OFFSET -2.532204 0.017040 -0.074005
										CHANNELS 3 Zrotation Xrotation Yrotation
										JOINT r_handPinky3_JNT
										{
											OFFSET -1.951202 -0.017010 0.026001
											CHANNELS 3 Zrotation Xrotation Yrotation
											End Site
											{
												OFFSET 0.000000 0.000000 0.099998
											}
										}
									}
								}
							}
						}
					}
				}
			}
		}
	}
	JOINT l_upleg_JNT
	{
		OFFSET 10.061400 0.706233 -5.185750
		CHANNELS 3 Zrotation Xrotation Yrotation
		JOINT l_leg_JNT
		{
			OFFSET -0.348572 0.819165 -45.582401
			CHANNELS 3 Zrotation Xrotation Yrotation
			JOINT l_foot_JNT
			{
				OFFSET 0.349145 1.708487 -42.332497
				CHANNELS 3 Zrotation Xrotation Yrotation
				JOINT l_toebase_JNT
				{
					OFFSET 0.070271 -12.888700 -8.126663
					CHANNELS 3 Zrotation Xrotation Yrotation
					End Site
					{
						OFFSET 0.000000 0.000000 0.099998
					}
				}
			}
		}
	}
	JOINT r_upleg_JNT
	{
		OFFSET -10.061000 0.706233 -5.185770
		CHANNELS 3 Zrotation Xrotation Yrotation
		JOINT r_leg_JNT
		{
			OFFSET 0.348580 0.819162 -45.582405
			CHANNELS 3 Zrotation Xrotation Yrotation
			JOINT r_foot_JNT
			{
				OFFSET -0.349180 1.708487 -42.332504
				CHANNELS 3 Zrotation Xrotation Yrotation
				JOINT r_toebase_JNT
				{
					OFFSET -0.070200 -12.888700 -8.126663
					CHANNELS 3 Zrotation Xrotation Yrotation
					End Site
					{
						OFFSET 0.000000 0.000000 0.099998
					}
				}
			}
		}
	}
}
MOTION
Frames: 5
Frame Time: 0.041667
7.623291 -5.764069 93.137329 22.062817 6.613626 1.854433 0.038674 -0.008975 -8.367710 -0.000003 0.000000 0.000001 14.289189 -0.182099 -0.960618 -0.243297 -8.224977 -0.304970 2.687727 15.033366 -12.766114 -0.000000 0.000000 -0.000002 -55.184684 -31.726403 3.829618 -82.931692 3.638049 -4.116598 -0.000001 0.000002 -0.000001 -22.207710 20.704827 4.106612 0.000001 -0.000004 -0.000003 0.684128 0.040988 6.849672 -0.302424 3.212031 10.780958 -0.503772 4.112828 13.870927 -0.228872 2.756389 9.238595 -0.272759 2.500615 12.608448 -0.459998 3.195826 16.218040 -0.200684 2.147783 10.805514 0.182307 -1.422724 14.387667 0.291012 -1.819168 18.500643 0.139072 -1.221962 12.331750 0.428279 -3.111282 15.766264 0.712681 -3.965143 20.284101 0.317336 -2.675094 13.510526 -0.000001 -0.000001 0.000004 115.229417 -36.609971 -8.967785 34.875072 5.528102 17.476605 -0.000001 -0.000004 -0.000004 22.207713 20.704827 -4.106613 -0.000003 0.000001 0.000001 0.718743 -0.045258 -7.219518 0.333152 3.383808 -11.364299 0.552462 4.331921 -14.622245 0.257488 2.903137 -9.738475 0.302084 2.633555 -13.290194 0.505096 3.364953 -17.095359 0.227314 2.261437 -11.389675 -0.201086 -1.498066 -15.164944 -0.333003 -1.910346 -19.500649 -0.145546 -1.288712 -12.997678 -0.481691 -3.272912 -16.619696 -0.788106 -4.170462 -21.382933 -0.350057 -2.817207 -14.241118 -9.937825 -10.640234 -27.874087 0.769283 9.834637 0.310824 -8.804529 -8.244747 23.450020 -0.309009 -0.820764 -0.002158 36.848959 -50.184221 45.136697 -33.520451 83.100275 37.535462 0.000003 -0.000000 -0.000006 0.000004 0.000000 0.000012 
7.129010 -6.713459 92.827950 23.073031 7.147786 1.662459 0.055602 -0.006612 -8.702520 0.000001 -0.000002 0.000001 15.137482 -0.196395 -0.606646 1.699536 -8.905798 2.171359 2.990421 13.466439 -15.152493 0.000002 -0.000000 -0.000002 -55.268917 -32.550800 2.929026 -84.192197 4.478091 -4.956064 0.000000 0.000001 0.000002 -22.207715 20.704829 4.106612 -0.000002 -0.000003 -0.000004 0.657312 0.037822 6.609563 -0.284809 3.100093 10.402433 -0.465943 3.972153 13.382880 -0.209381 2.661206 8.914053 -0.255109 2.414013 12.166006 -0.422755 3.088334 15.648006 -0.184552 2.073736 10.426236 0.176174 -1.372320 13.883310 0.272019 -1.757107 17.851789 0.346028 -1.134235 11.903713 0.404781 -3.003196 15.212781 0.662745 -3.832213 19.570804 0.302139 -2.581450 13.036520 0.000003 -0.000001 0.000002 116.270269 -35.751068 -8.339109 35.139571 5.476667 17.179509 -0.000000 -0.000015 0.000004 22.207710 20.704819 -4.106619 -0.000000 -0.000001 -0.000005 0.709993 -0.044161 -7.151874 0.339311 3.350047 -11.258223 0.545845 4.291260 -14.485023 0.248329 2.876979 -9.646851 0.300783 2.608291 -13.165700 0.495694 3.334359 -16.934860 0.222460 2.240643 -11.282847 -0.193811 -1.485314 -15.022651 -0.323491 -1.894336 -19.317739 -0.145408 -1.276253 -12.875841 -0.472293 -3.243261 -16.463666 -0.774025 -4.133026 -21.181960 -0.350305 -2.789645 -14.107751 -10.965192 -9.978076 -28.359118 0.920711 8.474955 0.300129 -8.401256 -7.995341 24.046378 -0.311532 -0.820535 -0.002190 35.621663 -45.081164 46.331622 -12.985720 80.200300 15.394046 -0.000001 0.000002 -0.000001 0.000002 0.000003 -0.000014 
6.271260 -7.902298 92.354034 24.111121 7.703635 1.228162 0.001059 0.006722 -8.896148 -0.000000 0.000002 -0.000000 15.878723 -0.206521 -0.292131 3.659048 -9.340361 4.667005 3.238275 12.322588 -17.242953 -0.000003 -0.000001 -0.000003 -54.083764 -34.286846 3.757319 -86.690093 5.448619 -5.772309 0.000001 0.000006 0.000001 -22.207713 20.704831 4.106615 -0.000000 0.000000 -0.000003 0.640414 0.035903 6.421784 -0.264714 3.013711 10.106103 -0.439731 3.861308 13.001468 -0.201957 2.585549 8.660648 -0.245059 2.345517 11.820190 -0.398109 3.002959 15.202558 -0.175894 2.015110 10.129913 0.157780 -1.336237 13.488496 0.255734 -1.709036 17.344265 0.346426 -1.101030 11.565525 0.380307 -2.920359 14.779771 0.625842 -3.727478 19.013186 0.283173 -2.509886 12.665605 0.000001 -0.000001 -0.000001 116.593064 -35.540756 -8.333989 36.582070 5.354345 16.103404 0.000001 0.000000 -0.000005 22.207711 20.704831 -4.106615 -0.000003 -0.000004 -0.000001 0.709961 -0.044157 -7.111679 0.324881 3.333581 -11.194193 0.542256 4.267000 -14.403510 0.239695 2.861961 -9.592254 0.294137 2.594646 -13.091445 0.492465 3.315471 -16.839591 0.217556 2.228696 -11.219256 -0.193378 -1.476688 -14.938196 -0.321162 -1.883653 -19.209175 -0.136978 -1.270750 -12.803387 -0.462033 -3.227009 -16.370573 -0.766946 -4.110274 -21.062569 -0.344946 -2.774663 -14.028275 -11.407695 -8.587545 -28.817070 1.082526 5.301715 0.328787 -8.087563 -6.931091 24.995321 -0.301315 -0.820900 -0.002047 32.862178 -38.837644 46.508015 -1.749307 74.928917 2.282495 0.000001 -0.000014 -0.000008 -0.000002 0.000001 -0.000002 
5.083330 -9.253948 91.739944 25.100172 8.278045 0.593658 0.001796 0.011384 -8.934435 0.000001 0.000003 -0.000000 16.530173 -0.212398 -0.004939 5.571123 -9.462356 7.100573 3.492959 11.523255 -19.233903 0.000002 0.000000 -0.000002 -51.702900 -36.673471 6.131673 -90.129503 6.309809 -6.295579 0.000000 -0.000008 0.000009 -22.207715 20.704825 4.106619 0.000006 -0.000003 -0.000002 0.625585 0.034255 6.299685 -0.262667 2.955592 9.914040 -0.419356 3.789984 12.753316 -0.187292 2.537834 8.495422 -0.233459 2.302042 11.595090 -0.383856 2.946958 14.913001 -0.166870 1.977587 9.937035 0.161275 -1.309071 13.232110 0.245274 -1.677725 17.014247 0.331302 -1.082558 11.345337 0.370884 -2.864799 14.498513 0.598486 -3.660493 18.650431 0.262485 -2.465166 12.424062 0.000003 -0.000000 0.000000 116.205929 -35.819179 -8.794336 39.066182 5.101062 14.313240 0.000000 0.000003 0.000003 22.207711 20.704820 -4.106617 0.000001 0.000001 0.000004 0.707755 -0.043880 -7.096355 0.326819 3.325829 -11.170291 0.536279 4.258950 -14.372038 0.244154 2.854926 -9.571837 0.301936 2.587059 -13.063656 0.491427 3.308210 -16.803355 0.219213 2.223445 -11.195254 -0.191750 -1.473794 -14.906078 -0.323230 -1.878564 -19.167888 -0.135775 -1.268190 -12.775776 -0.458135 -3.220806 -16.335176 -0.757762 -4.104099 -21.016646 -0.342063 -2.769160 -13.998007 -10.653330 -5.933125 -29.218678 1.243941 -1.281748 0.450080 -8.002013 -4.187111 26.350136 0.000000 0.000007 -0.000002 29.309677 -32.513125 46.031524 3.069606 68.381641 -4.517323 0.000002 -0.000015 -0.000001 -0.000002 -0.000005 -0.000000 
3.638660 -10.618420 91.004242 25.875060 8.903055 -0.113644 0.002476 0.015872 -8.842163 0.000002 0.000003 -0.000000 17.165075 -0.215153 0.266509 7.254327 -9.244717 9.253405 3.737559 10.870742 -21.229276 -0.000000 -0.000001 -0.000000 -48.341169 -39.239392 9.530533 -94.101900 6.848461 -6.375916 -0.000000 -0.000020 -0.000013 -22.207708 20.704829 4.106617 0.000003 -0.000007 0.000002 0.625552 0.034248 6.240554 -0.253159 2.928939 9.820583 -0.414606 3.754290 12.633425 -0.197405 2.512177 8.416177 -0.231484 2.280238 11.486188 -0.379640 2.919143 14.772953 -0.164922 1.958989 9.843738 0.140489 -1.301183 13.107505 0.245093 -1.661085 16.854579 0.320165 -1.074351 11.238629 0.353310 -2.841235 14.361675 0.591707 -3.625887 18.475211 0.258243 -2.442229 12.307292 -0.000000 -0.000000 0.000004 115.347716 -36.088927 -9.355490 42.104687 4.669100 12.091916 -0.000002 0.000007 -0.000002 22.207711 20.704829 -4.106617 -0.000002 -0.000001 0.000003 0.707763 -0.043884 -7.101178 0.332483 3.327033 -11.178197 0.536295 4.261943 -14.381783 0.238285 2.857890 -9.578017 0.297520 2.589895 -13.072244 0.491176 3.310662 -16.814701 0.209407 2.226936 -11.202363 -0.200239 -1.472583 -14.916387 -0.326444 -1.878813 -19.180979 -0.141403 -1.267799 -12.784497 -0.460971 -3.222275 -16.346391 -0.762619 -4.105281 -21.031216 -0.342966 -2.770885 -14.007531 -11.147333 -6.189656 -29.895581 1.366500 -1.281809 0.447827 -7.982014 -4.835426 27.456170 -0.000000 0.000000 0.000002 25.646059 -27.281767 45.236237 4.907037 61.884485 -8.176067 0.055950 0.000000 0.000011 0.000004 0.000001 0.000004 
